<svg width="496" height="90" xmlns="http://www.w3.org/2000/svg" preserveAspectRatio="xMidYMid meet" version="1.0">
 <g>
  <title>Layer 1</title>
  <g id="svg_9" stroke="null">
   <g id="svg_1" stroke="null">
    <path id="svg_2" d="m285.06282,44.15383l0,44.154l8.84652,0l8.84652,0l0.05282,-4.57051l0.07922,-4.57051l1.47882,1.50972c3.72346,3.88803 9.61234,6.41112 16.74238,7.21768c2.74638,0.28953 8.60886,0.24817 11.61932,-0.10341c7.65819,-0.90997 13.3094,-3.12284 18.61731,-7.32108c6.25859,-4.96345 9.69157,-10.7955 10.8535,-18.50952c0.39611,-2.64717 0.15845,-9.34782 -0.39611,-11.80887c-2.40309,-10.31983 -9.90283,-18.11658 -20.62429,-21.38418c-3.98754,-1.24086 -7.13004,-1.67516 -12.56999,-1.81993c-5.17588,-0.12409 -7.63178,0.06204 -11.30243,0.88928c-5.67762,1.3029 -11.40806,4.21893 -13.75833,7.03155c-0.52815,0.59975 -0.52815,0.47566 -0.52815,-17.14457l0,-17.72364l-8.97856,0l-8.97856,0l0,44.154l0.00001,-0.00001zm43.96855,-4.42574c6.91877,1.28222 12.06824,5.45979 14.18085,11.45729c0.50174,1.44767 0.58097,2.19219 0.58097,5.9975c0.02641,3.86735 -0.05282,4.54983 -0.58097,6.18363c-2.03338,6.24567 -7.55256,10.73345 -14.84104,12.01568c-2.85201,0.49634 -7.44693,0.45498 -10.1669,-0.08272c-7.73741,-1.57176 -13.04532,-6.28703 -14.97307,-13.35994c-0.50174,-1.92334 -0.42252,-7.48653 0.13204,-9.61668c1.02989,-3.72259 2.93124,-6.49384 6.20577,-8.91352c2.21823,-1.65448 5.09665,-2.97807 7.84304,-3.5985c3.30094,-0.7652 7.86945,-0.78588 11.61932,-0.08272l-0.00001,-0.00002z" stroke="null"/>
    <path id="svg_3" d="m30.89027,26.90586c-7.84304,0.88928 -14.81463,3.72259 -20.62429,8.35514c-7.20926,5.79069 -10.93272,13.31858 -10.93272,22.23211c0,8.76876 3.61783,16.11052 10.80068,21.96325c7.07722,5.79069 15.13152,8.62399 25.50968,8.97557c6.89237,0.24817 13.28299,-0.70315 18.43246,-2.7299c5.36073,-2.13015 10.98554,-6.45248 14.26007,-10.94026c1.55804,-2.15083 3.01046,-5.00481 2.66716,-5.25298c-0.36971,-0.28953 -14.89385,-4.42574 -15.0787,-4.30165c-0.07922,0.06204 -0.52815,0.82724 -1.00349,1.67516c-2.42949,4.3637 -7.23567,7.6313 -12.56999,8.52058c-2.87842,0.47566 -7.52615,0.4343 -10.08768,-0.10341c-3.5122,-0.72384 -6.04733,-1.90265 -8.89934,-4.15689c-2.13901,-1.65448 -2.71998,-2.27491 -3.77628,-3.9294c-2.16542,-3.41237 -3.08968,-7.65198 -2.56153,-11.97432c0.50174,-4.13621 1.82212,-7.05223 4.46287,-9.78213c2.35027,-2.41968 5.33432,-4.11552 9.13701,-5.19094c1.82212,-0.53771 2.58794,-0.62043 5.67762,-0.70315c4.22521,-0.12409 6.52266,0.18613 9.37468,1.24086c3.53861,1.32359 6.97159,4.4671 8.47682,7.77607c0.39611,0.8686 0.76582,1.59244 0.79223,1.6338c0.07922,0.10341 15.23715,-4.28097 15.50122,-4.48778c0.29048,-0.22749 -1.26756,-3.55714 -2.53512,-5.45979c-2.29746,-3.41237 -6.6547,-7.17632 -10.74787,-9.32714c-3.74987,-1.98538 -8.47682,-3.37101 -13.46784,-3.95008c-2.74638,-0.3309 -10.19331,-0.37226 -12.80766,-0.08272l0.00001,0z" stroke="null"/>
    <path id="svg_4" d="m107.26087,27.09199c-5.80966,0.82724 -11.43446,2.70921 -15.84452,5.29434c-2.85201,1.67516 -6.78674,4.92208 -8.68808,7.15564c-4.93821,5.81137 -7.13004,12.90496 -6.33781,20.4949c0.50174,4.86004 1.84853,8.64467 4.30443,12.36725c3.53861,5.27366 10.21972,10.34051 16.90082,12.78088c11.11757,4.09484 25.98502,3.80531 36.52162,-0.68247c6.3114,-2.68853 12.35873,-7.61062 15.58045,-12.69815c3.11609,-4.86004 4.5685,-11.37457 3.90832,-17.37206c-0.84504,-7.79675 -3.98754,-13.48403 -10.29894,-18.67497c-5.38714,-4.42574 -11.61932,-7.17632 -19.2775,-8.47922c-3.82909,-0.64111 -12.80766,-0.74452 -16.76879,-0.18613l0,-0.00001zm11.9098,12.32589c11.2232,1.79925 17.77227,9.86485 16.4783,20.28809c-0.36971,2.97807 -1.0563,5.02549 -2.42949,7.197c-1.98057,3.12284 -5.12306,5.58388 -9.1106,7.13495c-3.32735,1.28222 -4.93821,1.55108 -9.37468,1.5304c-3.43298,0 -4.04035,-0.06204 -5.9417,-0.55839c-6.10014,-1.61312 -10.80068,-5.08753 -12.99251,-9.67872c-1.34678,-2.79194 -1.7429,-5.08753 -1.58445,-8.97557c0.18485,-4.59119 1.29397,-7.61062 3.90832,-10.56801c2.77279,-3.1642 8.13352,-5.83205 12.99251,-6.47316c2.24464,-0.28953 5.88888,-0.24817 8.0543,0.10341z" stroke="null"/>
    <path id="svg_5" d="m156.19404,57.38969l0,30.71133l8.68808,0l8.71449,0l0.10563,-17.3307c0.07922,-16.81368 0.10563,-17.37206 0.66019,-19.27472c0.3433,-1.1995 1.02989,-2.70921 1.7429,-3.84667c2.05979,-3.24692 5.57199,-5.37707 10.58942,-6.41112c1.50523,-0.3309 2.82561,-0.39294 7.20926,-0.39294l5.33432,0l0,-6.94883l0,-6.94883l-0.97708,-0.14477c-1.82212,-0.22749 -7.15644,-0.12409 -8.97856,0.18613c-6.76033,1.11678 -12.43795,4.17757 -15.0787,8.10696l-0.713,1.09609l-0.13204,-4.71527l-0.13204,-4.69459l-8.50323,-0.06204l-8.52963,-0.04136l0,30.71133l-0.00001,0z" stroke="null"/>
    <path id="svg_6" d="m235.54869,27.00926c-7.81663,1.09609 -14.47133,3.76395 -20.28099,8.14833c-5.67762,4.26029 -9.16342,9.12033 -10.74787,15.05579c-0.73941,2.66785 -0.97708,7.87947 -0.52815,11.00231c1.18834,8.54126 5.99451,15.28328 14.3657,20.26741c7.05081,4.15689 14.52415,6.20431 23.92523,6.55589c10.03486,0.35158 18.9078,-1.55108 25.90579,-5.5632c5.12306,-2.93671 9.4539,-7.21768 11.43446,-11.35388l0.66019,-1.36495l-7.76382,-1.79925c-4.25161,-0.97201 -7.84304,-1.77857 -7.97508,-1.77857c-0.13204,0 -0.81863,0.90997 -1.53164,2.00606c-2.27105,3.5985 -5.9417,5.9975 -11.09117,7.21768c-2.21823,0.53771 -2.69357,0.57907 -7.39411,0.57907c-5.01743,0.02068 -5.01743,0.02068 -7.52615,-0.66179c-7.13004,-1.94402 -12.09465,-5.89409 -13.75833,-10.96095c-0.26408,-0.84792 -0.50174,-1.9647 -0.50174,-2.46104l0,-0.88928l29.04829,0l29.04829,0l0.10563,-0.47566c0.60737,-2.25423 0.26408,-8.04492 -0.66019,-11.60206c-1.50523,-5.81137 -4.51569,-10.34051 -9.4539,-14.20787c-5.57199,-4.3637 -12.01543,-6.74202 -21.0204,-7.7347c-3.43298,-0.39294 -11.43446,-0.37226 -14.26007,0.02068l0.00003,-0.00002zm13.81114,11.78819c1.32038,0.24817 3.1689,0.78588 4.09317,1.15814c2.16542,0.88928 5.5984,3.57782 6.73392,5.27366c0.89786,1.32359 1.90134,4.0328 1.90134,5.06685l0,0.57907l-19.40954,0l-19.40954,0l0,-0.57907c0,-0.95133 0.73941,-2.75058 1.7429,-4.38438c0.76582,-1.1995 1.53164,-1.98538 3.38016,-3.41237c2.61435,-2.04742 4.35724,-2.87466 7.47333,-3.61918c3.90832,-0.93065 9.05779,-0.95133 13.49425,-0.08272l0.00001,0z" stroke="null"/>
    <path id="svg_7" d="m366.84696,26.82313c-0.10563,0.06204 -0.18485,13.93901 -0.18485,30.81473l0,30.66997l8.71449,0l8.71449,0l0,-30.81473l0,-30.81473l-8.52963,0c-4.70054,0 -8.63526,0.06204 -8.71449,0.14477l-0.00001,-0.00001z" stroke="null"/>
    <path id="svg_8" d="m388.7124,26.94722c-0.07922,0.14477 -0.10563,2.89534 -0.07922,6.14227l0.07922,5.89409l24.50619,0.10341l24.5326,0.10341l-24.1893,18.50952l-24.1629,18.50952l-0.02641,6.03886l0,6.05954l38.42297,0l38.42297,0l0,-6.1009l0,-6.1009l-24.5326,-0.04136l-24.50619,-0.06204l24.50619,-18.71633l24.50619,-18.71633l-0.05282,-5.89409l-0.05282,-5.89409l-38.63423,-0.06204c-30.97604,-0.04136 -38.66063,0 -38.73986,0.22749l0.00002,-0.00003z" stroke="null"/>
   </g>
   <path stroke-opacity="0" id="svg_11" d="m482.77063,88.63528c-7.0031,-0.00768 -12.66717,-4.73397 -12.65675,-10.56121c0.01042,-5.82725 5.69137,-10.54109 12.69446,-10.53341c7.0031,0.00768 12.66717,4.73397 12.65675,10.56121c-0.01042,5.82725 -5.69137,10.54109 -12.69446,10.53341z" opacity="undefined" fill="#c1c0bf" stroke="#0c372c"/>
  </g>
 </g>

</svg>